<?xml version="1.0" standalone="no"?>
<!DOCTYPE svg PUBLIC "-//W3C//DTD SVG 20010904//EN"
 "http://www.w3.org/TR/2001/REC-SVG-20010904/DTD/svg10.dtd">
<svg version="1.0" xmlns="http://www.w3.org/2000/svg"
 width="692.000000pt" height="693.000000pt" viewBox="0 0 692.000000 693.000000"
 preserveAspectRatio="xMidYMid meet">

<g transform="translate(0.000000,693.000000) scale(0.100000,-0.100000)"
fill="#254248" stroke="none">
<path d="M4181 6047 c-14 -6 -33 -26 -43 -43 -33 -56 -35 -290 -3 -301 6 -2
10 39 10 105 0 87 4 114 20 147 18 36 24 40 56 39 42 -1 137 -60 229 -141 92
-80 216 -216 203 -220 -22 -8 -14 -21 20 -34 18 -6 45 -29 60 -50 51 -71 129
-149 148 -149 38 0 32 29 -16 81 -26 28 -45 52 -43 54 12 12 751 -298 1011
-424 336 -163 407 -224 363 -310 -25 -47 -160 -145 -421 -307 -372 -229 -604
-404 -891 -669 -83 -77 -186 -172 -229 -212 -68 -62 -77 -74 -66 -87 8 -9 20
-16 27 -16 7 0 69 49 136 108 360 316 360 316 898 590 327 166 505 265 577
320 49 36 76 86 68 122 -7 33 -47 70 -76 70 -16 0 -16 4 7 48 22 42 24 54 15
92 -13 57 -34 84 -117 148 -152 117 -739 382 -1109 501 -240 78 -240 78 -291
140 -74 91 -234 249 -309 305 -116 88 -189 117 -234 93z m2053 -1373 c53 -52
-40 -117 -496 -345 -142 -71 -258 -127 -258 -125 0 4 58 43 370 249 113 74
230 158 260 185 59 54 96 65 124 36z"/>
<path d="M2599 5995 c-201 -34 -503 -134 -654 -217 -180 -99 -340 -223 -514
-400 -355 -362 -607 -990 -642 -1603 -8 -148 -14 -187 -31 -220 -11 -22 -42
-82 -68 -133 -77 -147 -152 -392 -199 -647 -44 -238 -54 -353 -55 -615 -1
-234 1 -262 22 -345 41 -163 122 -288 217 -337 24 -13 67 -23 108 -26 61 -4
73 -2 135 28 155 76 418 414 590 759 122 245 166 410 160 600 -5 178 -55 246
-178 246 -97 0 -163 -36 -275 -149 -146 -147 -285 -363 -385 -600 -51 -119
-90 -249 -90 -295 1 -38 23 -61 57 -61 38 0 66 22 135 107 79 97 318 472 311
489 -13 35 -44 12 -99 -73 -124 -192 -280 -401 -291 -390 -7 8 46 154 101 277
128 286 315 538 449 605 129 64 197 9 197 -160 0 -221 -106 -488 -337 -847
-155 -242 -291 -401 -382 -447 -44 -23 -122 -28 -168 -10 -73 27 -146 145
-180 288 -25 106 -25 529 1 711 23 168 68 387 111 543 32 118 102 312 125 347
7 10 10 -33 10 -135 0 -181 19 -608 29 -650 5 -19 14 -31 27 -33 43 -6 45 12
33 234 -6 118 -9 334 -7 496 l5 287 60 93 c33 51 69 97 81 103 24 11 30 45 8
45 -8 0 -44 -32 -80 -71 l-66 -71 5 43 c3 24 9 90 15 147 17 169 82 460 141
628 121 344 277 618 464 813 242 252 490 419 750 504 342 111 399 121 675 114
243 -7 393 -27 620 -83 197 -49 320 -93 480 -171 74 -36 137 -65 140 -65 50 5
-228 149 -390 202 -223 74 -477 129 -689 150 -137 13 -388 11 -482 -5z"/>
<path d="M6473 5343 c-50 -4 -76 -24 -51 -39 6 -4 59 -8 117 -9 174 -4 251
-41 251 -122 0 -30 -10 -45 -62 -99 -48 -48 -101 -85 -218 -153 -85 -49 -161
-95 -168 -101 -16 -15 -11 -34 11 -38 21 -4 282 140 365 203 75 56 132 132
132 176 0 41 -23 92 -55 122 -50 46 -185 71 -322 60z"/>
<path d="M4902 4562 c-1 -42 -29 -145 -63 -237 -61 -163 -282 -496 -510 -769
l-82 -100 -17 60 c-19 69 -53 129 -82 145 -31 17 -33 4 -4 -33 39 -52 56 -102
56 -167 l0 -59 -110 -105 c-149 -143 -249 -216 -393 -287 -91 -45 -149 -67
-229 -85 -106 -23 -405 -62 -413 -53 -3 3 8 40 24 84 83 227 52 339 -88 319
-97 -14 -187 -71 -372 -238 l-102 -91 -51 18 c-145 52 -369 162 -611 302 -396
229 -435 246 -435 194 0 -13 28 -33 92 -68 51 -27 189 -109 305 -181 288 -177
377 -223 621 -322 19 -7 21 -12 11 -28 -16 -24 -5 -51 21 -51 15 0 20 5 18 18
-6 38 9 40 104 16 89 -24 161 -36 281 -49 l57 -6 -37 -67 c-21 -37 -81 -140
-135 -230 -102 -171 -167 -320 -188 -432 -12 -62 -15 -67 -63 -100 -450 -309
-1073 -812 -1577 -1274 -147 -135 -588 -583 -604 -614 -10 -19 -15 -41 -12
-49 4 -11 56 33 184 154 520 496 1076 968 1617 1374 567 426 1355 942 1953
1279 l183 103 117 -7 c118 -7 251 -29 285 -48 25 -13 47 -3 47 21 0 15 -14 24
-62 40 -86 28 -186 51 -227 51 -27 0 -31 3 -22 14 20 24 683 350 976 479 267
118 588 250 815 334 94 35 105 41 108 65 2 18 -3 30 -16 37 -16 9 -59 -4 -219
-63 -649 -241 -1254 -511 -1765 -787 l-128 -69 -99 0 c-55 0 -102 4 -105 9 -3
5 41 58 98 119 57 60 114 127 126 149 13 21 53 70 89 108 243 260 519 672 593
885 21 60 68 268 68 300 0 32 -27 24 -28 -8z m-1847 -1413 c0 -52 -26 -143
-67 -238 l-19 -44 -87 6 c-87 6 -280 42 -295 56 -9 9 36 52 156 145 122 94
173 125 228 135 71 12 84 3 84 -60z m891 -83 c-45 -54 -47 -90 -6 -111 16 -8
43 -15 60 -15 16 0 30 -3 30 -7 0 -5 -33 -26 -73 -47 -225 -121 -793 -477
-1140 -713 -93 -63 -171 -112 -174 -109 -15 14 49 164 130 305 88 152 200 348
231 404 14 25 20 27 73 27 80 0 311 35 427 65 53 13 138 44 190 68 95 45 245
136 266 162 7 8 14 15 17 15 2 0 -12 -20 -31 -44z"/>
<path d="M3464 1485 c-34 -34 -76 -130 -104 -235 -26 -98 -56 -143 -193 -287
-73 -76 -99 -96 -145 -113 -80 -31 -166 -25 -198 13 -54 63 -40 149 42 261 73
100 143 146 221 146 22 0 41 -6 48 -17 15 -21 35 -9 35 22 0 28 -16 35 -86 35
-91 0 -181 -58 -254 -161 -57 -82 -80 -136 -80 -194 0 -130 103 -197 245 -160
73 19 138 62 228 148 37 35 67 61 67 57 0 -5 -9 -37 -20 -72 -25 -79 -25 -101
-3 -96 10 2 38 40 64 87 83 152 164 234 258 261 28 8 32 6 37 -15 5 -22 0 -38
-71 -207 -15 -36 -25 -73 -22 -82 8 -20 76 -21 132 -1 51 19 52 19 58 -5 10
-38 48 -25 105 37 45 49 53 54 48 32 -4 -18 0 -35 13 -50 16 -20 23 -22 47
-14 25 9 86 73 152 160 16 21 13 9 -13 -42 -63 -130 -38 -154 43 -40 49 69
152 180 152 164 0 -16 -32 -84 -62 -130 -24 -38 -28 -51 -19 -60 10 -9 17 -6
32 13 160 206 183 228 149 139 -28 -76 -11 -84 46 -20 26 28 49 50 51 47 3 -3
0 -21 -7 -41 -7 -20 -9 -48 -5 -62 5 -23 10 -25 48 -21 39 5 43 3 57 -26 11
-23 23 -32 45 -34 25 -2 43 8 108 68 48 45 77 66 77 56 0 -34 50 -116 74 -122
26 -6 84 15 123 46 l27 21 12 -22 c13 -25 50 -48 78 -49 10 0 34 10 53 21 33
21 35 21 54 3 29 -26 87 -24 126 4 19 14 34 18 38 12 15 -25 58 -9 111 42 30
28 52 44 48 35 -13 -36 9 -39 45 -4 52 49 106 87 123 87 14 0 14 -6 0 -55 -12
-43 -13 -60 -4 -80 21 -45 59 -34 157 46 48 39 98 77 111 86 26 17 32 43 11
43 -15 0 -145 -88 -195 -131 -32 -29 -52 -37 -52 -21 0 5 7 32 16 61 20 68 12
91 -29 91 -18 0 -46 -9 -64 -19 -26 -16 -32 -17 -37 -5 -10 25 -26 15 -111
-66 -79 -75 -105 -93 -105 -70 0 5 11 26 25 46 14 20 25 43 25 50 0 31 -22 21
-58 -28 -61 -82 -95 -110 -128 -106 -49 5 -38 30 36 82 64 45 71 53 68 80 -3
27 -6 31 -32 29 -45 -3 -103 -48 -130 -101 -32 -62 -87 -100 -121 -84 -42 19
-33 54 30 107 60 52 72 88 33 98 -50 13 -112 -36 -124 -98 -8 -42 -105 -111
-150 -106 -21 2 -47 77 -40 114 7 35 94 161 185 267 59 68 72 92 61 110 -26
42 -155 -89 -231 -233 -30 -58 -66 -104 -133 -173 -51 -52 -97 -94 -103 -94
-7 0 -14 9 -18 20 -5 14 5 30 39 62 90 87 65 204 -29 132 -42 -31 -64 -69 -67
-113 -1 -20 -9 -33 -21 -37 -27 -9 -29 -3 -11 55 24 83 -1 118 -53 70 l-22
-22 -10 27 c-14 34 -32 33 -76 -5 -33 -29 -35 -30 -35 -10 0 46 -46 34 -113
-28 l-29 -26 22 38 c17 29 20 41 11 50 -21 21 -62 -14 -164 -141 -54 -67 -105
-122 -113 -122 -24 0 -11 61 33 148 25 51 33 76 26 83 -8 8 -16 3 -29 -16 -11
-14 -27 -36 -36 -48 -17 -21 -17 -21 -1 12 17 35 12 55 -19 74 -58 37 -178
-98 -178 -200 0 -19 -10 -28 -45 -44 -25 -11 -59 -19 -74 -17 l-29 3 45 99
c65 146 62 216 -11 216 -69 0 -170 -74 -253 -185 l-22 -30 13 45 c7 25 31 71
54 104 44 62 146 305 140 334 -5 28 -45 26 -74 -3z m-4 -116 c-31 -75 -50
-104 -50 -80 0 19 69 165 76 159 3 -3 -9 -39 -26 -79z m1190 -225 c0 -17 -33
-71 -50 -82 -17 -11 -20 -10 -20 7 0 21 45 81 61 81 5 0 9 -3 9 -6z m-760 -23
c0 -5 -20 -36 -45 -69 -45 -61 -85 -95 -85 -71 0 26 43 100 72 124 29 25 58
33 58 16z m1430 -15 c0 -2 -12 -11 -27 -20 l-28 -17 24 20 c23 21 31 25 31 17z
m-1507 -161 c-26 -30 -50 -50 -52 -44 -3 9 84 97 97 99 2 0 -18 -25 -45 -55z"/>
</g>
</svg>
