<?xml version="1.0" standalone="no"?>
<!DOCTYPE svg PUBLIC "-//W3C//DTD SVG 20010904//EN"
 "http://www.w3.org/TR/2001/REC-SVG-20010904/DTD/svg10.dtd">
<svg version="1.0" xmlns="http://www.w3.org/2000/svg"
 width="288.000000pt" height="321.000000pt" viewBox="0 0 288.000000 321.000000"
 preserveAspectRatio="xMidYMid meet">

<g transform="translate(0.000000,321.000000) scale(0.100000,-0.100000)"
fill="#254248" stroke="none">
<path d="M575 2795 c-276 -75 -469 -263 -547 -532 -23 -78 -23 -78 -23 -838 0
-853 -3 -808 75 -970 96 -197 271 -340 485 -395 75 -19 110 -20 875 -20 754 0
801 1 872 19 213 55 394 201 488 396 78 162 75 118 75 970 0 760 0 760 -23
838 -70 242 -236 421 -475 511 l-82 31 -835 2 c-680 2 -844 -1 -885 -12z
m1292 -626 c49 -16 100 -79 109 -136 16 -105 -41 -245 -142 -353 -73 -77 -133
-119 -215 -150 l-57 -22 -17 -111 c-9 -62 -19 -130 -22 -151 l-6 -39 64 66
c111 112 181 104 243 -26 20 -41 36 -79 36 -84 0 -6 7 -16 15 -23 21 -17 47
-5 114 56 l54 48 36 -21 c20 -11 37 -28 39 -37 4 -21 -91 -121 -146 -154 -56
-32 -119 -35 -159 -7 -15 12 -44 54 -64 94 -20 40 -43 78 -52 83 -25 13 -86
-49 -151 -157 -74 -120 -72 -118 -115 -110 -76 13 -74 10 -66 82 l7 64 -60
-41 c-81 -55 -168 -89 -255 -100 -89 -11 -141 1 -192 43 -54 44 -75 96 -75
189 0 89 19 148 70 222 99 145 298 152 361 12 21 -47 14 -61 -34 -69 -25 -4
-38 1 -59 20 -31 30 -84 34 -121 10 -41 -27 -79 -116 -81 -191 -1 -56 2 -68
24 -91 23 -24 30 -26 75 -21 69 8 196 72 287 144 61 49 78 68 83 94 11 68 25
163 25 174 0 6 -37 16 -86 23 -140 20 -153 30 -114 93 l20 33 102 0 101 0 28
130 c14 72 36 153 46 181 47 121 143 223 228 242 41 10 66 8 122 -9z"/>
<path d="M1764 2071 c-39 -24 -66 -61 -104 -144 -30 -63 -78 -253 -66 -264 8
-9 97 51 138 94 53 56 96 129 119 205 18 58 19 71 7 95 -16 35 -52 40 -94 14z"/>
</g>
</svg>
