<svg xmlns="http://www.w3.org/2000/svg" xmlns:xlink="http://www.w3.org/1999/xlink" width="320" zoomAndPan="magnify" viewBox="0 0 240 239.999995" height="320" preserveAspectRatio="xMidYMid meet" version="1.0"><defs><clipPath id="fb0b208040"><path d="M 56.25 0 L 183.75 0 C 214.816406 0 240 25.183594 240 56.25 L 240 183.75 C 240 214.816406 214.816406 240 183.75 240 L 56.25 240 C 25.183594 240 0 214.816406 0 183.75 L 0 56.25 C 0 25.183594 25.183594 0 56.25 0 Z M 56.25 0 " clip-rule="nonzero"/></clipPath></defs><g clip-path="url(#fb0b208040)"><rect x="-24" width="288" fill="#254248" y="-23.999999" height="287.999994" fill-opacity="1"/></g><path fill="#ffffff" d="M 143.96875 29.355469 C 143.503906 29.554688 142.871094 30.21875 142.539062 30.785156 C 141.441406 32.648438 141.375 40.425781 142.4375 40.792969 C 142.636719 40.859375 142.769531 39.496094 142.769531 37.300781 C 142.769531 34.410156 142.902344 33.511719 143.433594 32.414062 C 144.035156 31.21875 144.234375 31.085938 145.296875 31.117188 C 146.695312 31.152344 149.851562 33.113281 152.910156 35.804688 C 155.96875 38.464844 160.089844 42.984375 159.660156 43.121094 C 158.929688 43.386719 159.195312 43.816406 160.324219 44.25 C 160.921875 44.449219 161.820312 45.214844 162.320312 45.910156 C 164.015625 48.273438 166.609375 50.867188 167.238281 50.867188 C 168.503906 50.867188 168.304688 49.902344 166.707031 48.171875 C 165.84375 47.242188 165.210938 46.445312 165.277344 46.378906 C 165.675781 45.976562 190.246094 56.285156 198.890625 60.472656 C 210.058594 65.890625 212.417969 67.921875 210.957031 70.78125 C 210.125 72.34375 205.636719 75.601562 196.960938 80.984375 C 184.59375 88.597656 176.878906 94.417969 167.339844 103.226562 C 164.578125 105.785156 161.15625 108.945312 159.726562 110.273438 C 157.464844 112.335938 157.164062 112.734375 157.53125 113.167969 C 157.796875 113.464844 158.195312 113.699219 158.429688 113.699219 C 158.660156 113.699219 160.722656 112.070312 162.949219 110.109375 C 174.917969 99.601562 174.917969 99.601562 192.804688 90.492188 C 203.675781 84.976562 209.59375 81.683594 211.988281 79.855469 C 213.617188 78.660156 214.515625 76.996094 214.25 75.800781 C 214.015625 74.703125 212.6875 73.472656 211.722656 73.472656 C 211.191406 73.472656 211.191406 73.339844 211.953125 71.875 C 212.6875 70.480469 212.753906 70.082031 212.453125 68.816406 C 212.019531 66.921875 211.324219 66.023438 208.5625 63.898438 C 203.511719 60.007812 183.996094 51.199219 171.695312 47.242188 C 163.714844 44.648438 163.714844 44.648438 162.019531 42.585938 C 159.558594 39.5625 154.242188 34.308594 151.746094 32.449219 C 147.890625 29.523438 145.464844 28.558594 143.96875 29.355469 Z M 212.21875 75 C 213.980469 76.730469 210.890625 78.890625 195.730469 86.472656 C 191.007812 88.832031 187.152344 90.695312 187.152344 90.625 C 187.152344 90.492188 189.082031 89.199219 199.453125 82.347656 C 203.210938 79.890625 207.101562 77.097656 208.097656 76.199219 C 210.058594 74.402344 211.289062 74.039062 212.21875 75 Z M 212.21875 75 " fill-opacity="1" fill-rule="nonzero"/><path fill="#ffffff" d="M 91.375 31.085938 C 84.691406 32.214844 74.652344 35.539062 69.628906 38.296875 C 63.648438 41.589844 58.328125 45.710938 52.542969 51.597656 C 40.742188 63.632812 32.363281 84.511719 31.199219 104.890625 C 30.933594 109.808594 30.734375 111.105469 30.167969 112.203125 C 29.800781 112.933594 28.773438 114.929688 27.90625 116.625 C 25.347656 121.511719 22.855469 129.65625 21.292969 138.132812 C 19.828125 146.046875 19.496094 149.871094 19.464844 158.582031 C 19.429688 166.359375 19.496094 167.289062 20.195312 170.050781 C 21.558594 175.46875 24.25 179.625 27.410156 181.253906 C 28.207031 181.6875 29.636719 182.019531 31 182.117188 C 33.027344 182.25 33.425781 182.183594 35.488281 181.1875 C 40.640625 178.660156 49.382812 167.421875 55.101562 155.953125 C 59.160156 147.808594 60.621094 142.324219 60.421875 136.007812 C 60.253906 130.089844 58.59375 127.828125 54.503906 127.828125 C 51.277344 127.828125 49.085938 129.023438 45.363281 132.78125 C 40.507812 137.667969 35.886719 144.851562 32.5625 152.730469 C 30.867188 156.6875 29.570312 161.007812 29.570312 162.535156 C 29.601562 163.800781 30.335938 164.566406 31.464844 164.566406 C 32.726562 164.566406 33.660156 163.832031 35.953125 161.007812 C 38.578125 157.78125 46.523438 145.316406 46.292969 144.75 C 45.859375 143.585938 44.828125 144.351562 43 147.175781 C 38.878906 153.558594 33.691406 160.507812 33.328125 160.144531 C 33.09375 159.878906 34.855469 155.023438 36.683594 150.933594 C 40.941406 141.425781 47.15625 133.046875 51.613281 130.820312 C 55.898438 128.691406 58.160156 130.519531 58.160156 136.140625 C 58.160156 143.488281 54.636719 152.363281 46.957031 164.296875 C 41.804688 172.34375 37.28125 177.628906 34.257812 179.160156 C 32.792969 179.925781 30.203125 180.089844 28.671875 179.492188 C 26.246094 178.59375 23.820312 174.671875 22.6875 169.917969 C 21.855469 166.394531 21.855469 152.332031 22.722656 146.28125 C 23.484375 140.695312 24.980469 133.414062 26.410156 128.226562 C 27.476562 124.304688 29.800781 117.855469 30.566406 116.691406 C 30.800781 116.359375 30.898438 117.789062 30.898438 121.179688 C 30.898438 127.195312 31.53125 141.394531 31.863281 142.789062 C 32.03125 143.421875 32.328125 143.820312 32.761719 143.886719 C 34.191406 144.085938 34.257812 143.488281 33.859375 136.105469 C 33.660156 132.183594 33.558594 125.003906 33.625 119.617188 L 33.792969 110.074219 L 35.785156 106.984375 C 36.882812 105.289062 38.082031 103.757812 38.480469 103.558594 C 39.277344 103.195312 39.476562 102.0625 38.746094 102.0625 C 38.480469 102.0625 37.28125 103.128906 36.085938 104.421875 L 33.890625 106.785156 L 34.058594 105.355469 C 34.15625 104.558594 34.355469 102.363281 34.558594 100.46875 C 35.121094 94.847656 37.28125 85.175781 39.246094 79.589844 C 43.265625 68.152344 48.453125 59.042969 54.671875 52.5625 C 62.714844 44.183594 70.960938 38.632812 79.605469 35.804688 C 90.972656 32.113281 92.871094 31.78125 102.046875 32.015625 C 110.125 32.246094 115.109375 32.914062 122.65625 34.773438 C 129.207031 36.402344 133.296875 37.867188 138.613281 40.460938 C 141.074219 41.65625 143.167969 42.621094 143.269531 42.621094 C 144.929688 42.453125 135.6875 37.667969 130.304688 35.90625 C 122.890625 33.445312 114.445312 31.617188 107.398438 30.917969 C 102.84375 30.484375 94.5 30.550781 91.375 31.085938 Z M 91.375 31.085938 " fill-opacity="1" fill-rule="nonzero"/><path fill="#ffffff" d="M 220.164062 52.761719 C 218.503906 52.894531 217.640625 53.558594 218.46875 54.058594 C 218.667969 54.191406 220.433594 54.324219 222.359375 54.355469 C 228.144531 54.488281 230.703125 55.71875 230.703125 58.414062 C 230.703125 59.410156 230.371094 59.910156 228.644531 61.703125 C 227.046875 63.300781 225.285156 64.53125 221.394531 66.789062 C 218.570312 68.417969 216.042969 69.949219 215.8125 70.148438 C 215.277344 70.644531 215.445312 71.277344 216.175781 71.410156 C 216.875 71.542969 225.550781 66.757812 228.3125 64.664062 C 230.804688 62.800781 232.699219 60.273438 232.699219 58.8125 C 232.699219 57.449219 231.933594 55.753906 230.871094 54.753906 C 229.207031 53.226562 224.71875 52.394531 220.164062 52.761719 Z M 220.164062 52.761719 " fill-opacity="1" fill-rule="nonzero"/><path fill="#ffffff" d="M 167.9375 78.726562 C 167.902344 80.121094 166.972656 83.546875 165.84375 86.605469 C 163.816406 92.023438 156.46875 103.09375 148.886719 112.171875 L 146.160156 115.496094 L 145.597656 113.5 C 144.964844 111.207031 143.835938 109.210938 142.871094 108.679688 C 141.839844 108.113281 141.773438 108.546875 142.738281 109.777344 C 144.035156 111.503906 144.597656 113.167969 144.597656 115.328125 L 144.597656 117.289062 L 140.941406 120.78125 C 135.988281 125.535156 132.664062 127.960938 127.875 130.320312 C 124.851562 131.816406 122.921875 132.550781 120.261719 133.148438 C 116.738281 133.914062 106.800781 135.210938 106.53125 134.910156 C 106.433594 134.808594 106.800781 133.578125 107.332031 132.117188 C 110.089844 124.570312 109.058594 120.847656 104.40625 121.511719 C 101.179688 121.976562 98.1875 123.871094 92.039062 129.425781 L 88.648438 132.449219 L 86.953125 131.851562 C 82.132812 130.121094 74.683594 126.464844 66.636719 121.8125 C 53.472656 114.199219 52.175781 113.632812 52.175781 115.363281 C 52.175781 115.792969 53.109375 116.457031 55.234375 117.621094 C 56.929688 118.519531 61.519531 121.246094 65.375 123.640625 C 74.949219 129.523438 77.910156 131.054688 86.019531 134.34375 C 86.652344 134.578125 86.71875 134.742188 86.386719 135.277344 C 85.855469 136.074219 86.21875 136.972656 87.085938 136.972656 C 87.582031 136.972656 87.75 136.804688 87.683594 136.371094 C 87.484375 135.109375 87.980469 135.042969 91.140625 135.839844 C 94.097656 136.636719 96.492188 137.039062 100.484375 137.46875 L 102.378906 137.667969 L 101.148438 139.898438 C 100.449219 141.125 98.453125 144.550781 96.660156 147.542969 C 93.269531 153.226562 91.105469 158.179688 90.410156 161.90625 C 90.011719 163.964844 89.910156 164.132812 88.316406 165.230469 C 73.355469 175.503906 52.640625 192.226562 35.886719 207.585938 C 31 212.074219 16.339844 226.964844 15.804688 227.996094 C 15.472656 228.628906 15.308594 229.359375 15.40625 229.625 C 15.539062 229.992188 17.269531 228.527344 21.523438 224.507812 C 38.8125 208.015625 57.296875 192.324219 75.28125 178.828125 C 94.132812 164.664062 120.328125 147.511719 140.210938 136.304688 L 146.292969 132.882812 L 150.183594 133.113281 C 154.105469 133.347656 158.527344 134.078125 159.660156 134.710938 C 160.492188 135.140625 161.222656 134.808594 161.222656 134.011719 C 161.222656 133.511719 160.757812 133.214844 159.160156 132.683594 C 156.300781 131.75 152.976562 130.988281 151.613281 130.988281 C 150.714844 130.988281 150.582031 130.886719 150.882812 130.519531 C 151.546875 129.722656 173.589844 118.886719 183.328125 114.597656 C 192.207031 110.675781 202.878906 106.285156 210.425781 103.492188 C 213.550781 102.328125 213.914062 102.128906 214.015625 101.332031 C 214.082031 100.734375 213.914062 100.335938 213.484375 100.101562 C 212.953125 99.800781 211.523438 100.234375 206.203125 102.195312 C 184.625 110.207031 164.511719 119.183594 147.523438 128.359375 L 143.269531 130.65625 L 139.976562 130.65625 C 138.148438 130.65625 136.585938 130.519531 136.488281 130.355469 C 136.386719 130.1875 137.851562 128.425781 139.746094 126.398438 C 141.640625 124.402344 143.535156 122.175781 143.933594 121.445312 C 144.367188 120.746094 145.695312 119.117188 146.894531 117.855469 C 154.972656 109.210938 164.148438 95.515625 166.609375 88.433594 C 167.304688 86.4375 168.867188 79.523438 168.867188 78.460938 C 168.867188 77.394531 167.96875 77.660156 167.9375 78.726562 Z M 106.53125 125.699219 C 106.53125 127.429688 105.667969 130.453125 104.304688 133.613281 L 103.675781 135.074219 L 100.78125 134.875 C 97.890625 134.675781 91.472656 133.480469 90.972656 133.015625 C 90.675781 132.714844 92.171875 131.285156 96.160156 128.195312 C 100.214844 125.070312 101.910156 124.039062 103.742188 123.707031 C 106.101562 123.308594 106.53125 123.605469 106.53125 125.699219 Z M 136.15625 128.460938 C 134.660156 130.253906 134.59375 131.453125 135.957031 132.152344 C 136.488281 132.417969 137.386719 132.648438 137.949219 132.648438 C 138.480469 132.648438 138.949219 132.75 138.949219 132.882812 C 138.949219 133.046875 137.851562 133.746094 136.519531 134.445312 C 129.039062 138.46875 110.15625 150.300781 98.621094 158.148438 C 95.527344 160.242188 92.9375 161.871094 92.835938 161.773438 C 92.335938 161.308594 94.464844 156.320312 97.15625 151.632812 C 100.082031 146.578125 103.808594 140.0625 104.835938 138.199219 C 105.304688 137.371094 105.503906 137.304688 107.265625 137.304688 C 109.925781 137.304688 117.605469 136.140625 121.460938 135.140625 C 123.222656 134.710938 126.046875 133.679688 127.777344 132.882812 C 130.933594 131.386719 135.921875 128.359375 136.621094 127.496094 C 136.851562 127.230469 137.085938 126.996094 137.183594 126.996094 C 137.25 126.996094 136.785156 127.664062 136.15625 128.460938 Z M 136.15625 128.460938 " fill-opacity="1" fill-rule="nonzero"/><path fill="#ffffff" d="M 120.128906 181.019531 C 119 182.152344 117.605469 185.34375 116.671875 188.832031 C 115.808594 192.09375 114.8125 193.589844 110.257812 198.375 C 107.828125 200.902344 106.964844 201.566406 105.4375 202.132812 C 102.777344 203.164062 99.917969 202.964844 98.851562 201.699219 C 97.058594 199.605469 97.523438 196.746094 100.25 193.023438 C 102.675781 189.699219 105.003906 188.167969 107.597656 188.167969 C 108.328125 188.167969 108.960938 188.367188 109.191406 188.734375 C 109.691406 189.433594 110.355469 189.035156 110.355469 188.003906 C 110.355469 187.070312 109.824219 186.839844 107.496094 186.839844 C 104.472656 186.839844 101.480469 188.765625 99.054688 192.191406 C 97.15625 194.917969 96.394531 196.714844 96.394531 198.640625 C 96.394531 202.964844 99.816406 205.191406 104.539062 203.960938 C 106.964844 203.328125 109.125 201.898438 112.117188 199.039062 C 113.347656 197.875 114.347656 197.011719 114.347656 197.144531 C 114.347656 197.3125 114.046875 198.375 113.679688 199.539062 C 112.851562 202.164062 112.851562 202.898438 113.582031 202.730469 C 113.914062 202.664062 114.84375 201.402344 115.707031 199.839844 C 118.46875 194.785156 121.160156 192.058594 124.285156 191.160156 C 125.21875 190.894531 125.351562 190.960938 125.515625 191.660156 C 125.683594 192.390625 125.515625 192.921875 123.15625 198.542969 C 122.65625 199.738281 122.324219 200.96875 122.425781 201.269531 C 122.691406 201.933594 124.949219 201.964844 126.8125 201.300781 C 128.507812 200.667969 128.542969 200.667969 128.742188 201.46875 C 129.074219 202.730469 130.335938 202.296875 132.230469 200.238281 C 133.726562 198.609375 133.992188 198.441406 133.828125 199.171875 C 133.695312 199.773438 133.828125 200.335938 134.257812 200.835938 C 134.792969 201.5 135.023438 201.566406 135.824219 201.300781 C 136.652344 201 138.679688 198.875 140.875 195.980469 C 141.40625 195.285156 141.308594 195.683594 140.445312 197.378906 C 138.347656 201.699219 139.179688 202.496094 141.871094 198.707031 C 143.503906 196.414062 146.925781 192.722656 146.925781 193.253906 C 146.925781 193.789062 145.863281 196.046875 144.863281 197.578125 C 144.066406 198.839844 143.933594 199.273438 144.234375 199.570312 C 144.566406 199.871094 144.796875 199.773438 145.296875 199.140625 C 150.617188 192.292969 151.382812 191.558594 150.25 194.519531 C 149.320312 197.046875 149.886719 197.3125 151.78125 195.183594 C 152.644531 194.253906 153.410156 193.519531 153.476562 193.621094 C 153.574219 193.722656 153.476562 194.320312 153.242188 194.984375 C 153.011719 195.648438 152.945312 196.578125 153.078125 197.046875 C 153.242188 197.808594 153.410156 197.875 154.671875 197.742188 C 155.96875 197.578125 156.101562 197.644531 156.566406 198.609375 C 156.933594 199.371094 157.332031 199.671875 158.0625 199.738281 C 158.894531 199.804688 159.492188 199.472656 161.652344 197.476562 C 163.25 195.980469 164.214844 195.285156 164.214844 195.617188 C 164.214844 196.746094 165.875 199.472656 166.675781 199.671875 C 167.539062 199.871094 169.464844 199.171875 170.761719 198.140625 L 171.660156 197.445312 L 172.058594 198.175781 C 172.492188 199.007812 173.722656 199.773438 174.652344 199.804688 C 174.984375 199.804688 175.785156 199.472656 176.414062 199.105469 C 177.511719 198.410156 177.578125 198.410156 178.210938 199.007812 C 179.175781 199.871094 181.101562 199.804688 182.398438 198.875 C 183.03125 198.410156 183.53125 198.277344 183.664062 198.476562 C 184.160156 199.304688 185.589844 198.773438 187.351562 197.078125 C 188.351562 196.148438 189.082031 195.617188 188.949219 195.914062 C 188.515625 197.113281 189.246094 197.210938 190.445312 196.046875 C 192.171875 194.417969 193.96875 193.15625 194.535156 193.15625 C 195 193.15625 195 193.355469 194.535156 194.984375 C 194.132812 196.414062 194.101562 196.980469 194.402344 197.644531 C 195.097656 199.140625 196.363281 198.773438 199.621094 196.113281 C 201.214844 194.816406 202.878906 193.554688 203.308594 193.253906 C 204.175781 192.691406 204.375 191.824219 203.675781 191.824219 C 203.175781 191.824219 198.855469 194.75 197.191406 196.179688 C 196.128906 197.144531 195.464844 197.410156 195.464844 196.878906 C 195.464844 196.714844 195.695312 195.816406 195.996094 194.851562 C 196.660156 192.589844 196.394531 191.824219 195.03125 191.824219 C 194.433594 191.824219 193.503906 192.125 192.90625 192.457031 C 192.039062 192.988281 191.839844 193.023438 191.675781 192.625 C 191.34375 191.792969 190.808594 192.125 187.984375 194.816406 C 185.359375 197.3125 184.492188 197.910156 184.492188 197.144531 C 184.492188 196.980469 184.859375 196.28125 185.324219 195.617188 C 185.789062 194.949219 186.15625 194.1875 186.15625 193.953125 C 186.15625 192.921875 185.425781 193.253906 184.226562 194.882812 C 182.199219 197.609375 181.070312 198.542969 179.972656 198.410156 C 178.34375 198.242188 178.707031 197.410156 181.167969 195.683594 C 183.296875 194.1875 183.53125 193.921875 183.429688 193.023438 C 183.328125 192.125 183.230469 191.992188 182.367188 192.058594 C 180.871094 192.160156 178.941406 193.65625 178.042969 195.417969 C 176.980469 197.476562 175.152344 198.742188 174.019531 198.210938 C 172.625 197.578125 172.925781 196.414062 175.019531 194.652344 C 177.011719 192.921875 177.414062 191.726562 176.117188 191.394531 C 174.453125 190.960938 172.390625 192.589844 171.992188 194.652344 C 171.726562 196.046875 168.503906 198.34375 167.007812 198.175781 C 166.308594 198.109375 165.445312 195.617188 165.675781 194.386719 C 165.910156 193.222656 168.800781 189.035156 171.828125 185.507812 C 173.789062 183.25 174.222656 182.449219 173.855469 181.851562 C 172.992188 180.457031 168.703125 184.8125 166.175781 189.597656 C 165.179688 191.527344 163.980469 193.054688 161.753906 195.351562 C 160.058594 197.078125 158.527344 198.476562 158.328125 198.476562 C 158.097656 198.476562 157.863281 198.175781 157.730469 197.808594 C 157.566406 197.34375 157.898438 196.8125 159.027344 195.75 C 162.019531 192.855469 161.1875 188.96875 158.0625 191.359375 C 156.667969 192.390625 155.9375 193.65625 155.835938 195.117188 C 155.804688 195.78125 155.535156 196.214844 155.136719 196.347656 C 154.242188 196.648438 154.171875 196.445312 154.773438 194.519531 C 155.570312 191.757812 154.738281 190.597656 153.011719 192.191406 L 152.277344 192.921875 L 151.945312 192.027344 C 151.480469 190.894531 150.882812 190.929688 149.417969 192.191406 C 148.324219 193.15625 148.257812 193.1875 148.257812 192.523438 C 148.257812 190.996094 146.726562 191.394531 144.5 193.453125 L 143.535156 194.320312 L 144.265625 193.054688 C 144.832031 192.09375 144.929688 191.691406 144.632812 191.394531 C 143.933594 190.695312 142.570312 191.859375 139.179688 196.082031 C 137.386719 198.308594 135.6875 200.136719 135.421875 200.136719 C 134.625 200.136719 135.058594 198.109375 136.519531 195.21875 C 137.351562 193.519531 137.617188 192.691406 137.386719 192.457031 C 137.117188 192.191406 136.851562 192.359375 136.421875 192.988281 C 136.054688 193.453125 135.523438 194.1875 135.222656 194.585938 C 134.660156 195.285156 134.660156 195.285156 135.191406 194.1875 C 135.753906 193.023438 135.589844 192.359375 134.558594 191.726562 C 132.628906 190.496094 128.640625 194.984375 128.640625 198.375 C 128.640625 199.007812 128.308594 199.304688 127.144531 199.839844 C 126.3125 200.203125 125.183594 200.46875 124.683594 200.402344 L 123.722656 200.304688 L 125.21875 197.011719 C 127.378906 192.160156 127.277344 189.832031 124.851562 189.832031 C 122.558594 189.832031 119.199219 192.292969 116.441406 195.980469 L 115.707031 196.980469 L 116.140625 195.484375 C 116.375 194.652344 117.171875 193.121094 117.9375 192.027344 C 119.398438 189.964844 122.789062 181.886719 122.589844 180.921875 C 122.425781 179.992188 121.09375 180.058594 120.128906 181.019531 Z M 119.996094 184.878906 C 118.96875 187.371094 118.335938 188.335938 118.335938 187.539062 C 118.335938 186.90625 120.628906 182.050781 120.863281 182.25 C 120.960938 182.351562 120.5625 183.546875 119.996094 184.878906 Z M 159.558594 192.359375 C 159.558594 192.921875 158.460938 194.71875 157.898438 195.085938 C 157.332031 195.449219 157.230469 195.417969 157.230469 194.851562 C 157.230469 194.152344 158.726562 192.160156 159.261719 192.160156 C 159.425781 192.160156 159.558594 192.257812 159.558594 192.359375 Z M 134.292969 193.121094 C 134.292969 193.289062 133.628906 194.320312 132.796875 195.417969 C 131.300781 197.445312 129.972656 198.574219 129.972656 197.777344 C 129.972656 196.914062 131.402344 194.453125 132.363281 193.65625 C 133.328125 192.824219 134.292969 192.558594 134.292969 193.121094 Z M 181.832031 193.621094 C 181.832031 193.6875 181.433594 193.988281 180.9375 194.285156 L 180.003906 194.851562 L 180.804688 194.1875 C 181.566406 193.488281 181.832031 193.355469 181.832031 193.621094 Z M 131.734375 198.972656 C 130.867188 199.972656 130.070312 200.636719 130.003906 200.4375 C 129.90625 200.136719 132.796875 197.210938 133.230469 197.144531 C 133.296875 197.144531 132.628906 197.976562 131.734375 198.972656 Z M 131.734375 198.972656 " fill-opacity="1" fill-rule="nonzero"/></svg>