<?xml version="1.0" standalone="no"?>
<!DOCTYPE svg PUBLIC "-//W3C//DTD SVG 20010904//EN"
 "http://www.w3.org/TR/2001/REC-SVG-20010904/DTD/svg10.dtd">
<svg version="1.0" xmlns="http://www.w3.org/2000/svg"
 width="214.000000pt" height="321.000000pt" viewBox="0 0 214.000000 321.000000"
 preserveAspectRatio="xMidYMid meet">

<g transform="translate(0.000000,321.000000) scale(0.100000,-0.100000)"
fill="#254248" stroke="none">
<path d="M563 2416 c-170 -42 -312 -184 -359 -361 -21 -75 -20 -1088 1 -1164
45 -170 169 -300 333 -351 60 -19 93 -20 526 -20 358 0 472 3 512 14 138 37
257 138 322 273 l37 78 3 564 c2 496 1 570 -14 619 -49 171 -175 297 -342 343
-61 17 -107 19 -517 18 -324 0 -464 -4 -502 -13z m912 -241 c39 -9 91 -49 109
-83 77 -153 -72 -435 -284 -536 -41 -20 -80 -36 -87 -36 -20 0 -28 -31 -47
-165 -9 -66 -20 -129 -23 -140 -3 -11 20 8 52 43 63 69 99 92 144 92 43 0 96
-50 120 -113 32 -87 44 -107 60 -107 9 0 47 25 85 56 72 61 74 61 130 19 18
-13 18 -17 5 -41 -17 -33 -111 -119 -153 -141 -42 -22 -114 -21 -149 1 -16 11
-41 48 -62 92 -19 40 -44 78 -56 84 -17 10 -25 6 -53 -24 -18 -20 -52 -68 -77
-107 -90 -144 -81 -134 -129 -132 -71 3 -73 5 -68 78 4 64 4 65 -17 50 -46
-34 -123 -76 -172 -95 -62 -23 -167 -41 -200 -35 -13 3 -34 7 -48 10 -34 7
-92 60 -115 106 -77 150 16 384 175 445 85 32 194 -6 229 -81 24 -50 18 -68
-27 -77 -34 -7 -41 -5 -60 18 -29 33 -85 37 -124 7 -65 -48 -103 -195 -69
-261 10 -18 27 -34 42 -38 75 -19 244 62 374 180 37 33 40 40 50 118 6 46 12
93 15 104 4 20 -1 22 -58 28 -71 8 -148 25 -160 36 -5 4 2 28 14 53 l23 47
102 -7 c103 -6 103 -6 108 18 65 320 110 424 219 501 33 24 112 49 137 43 8
-2 29 -6 45 -10z"/>
<path d="M1393 2070 c-69 -41 -127 -157 -162 -322 -11 -49 -17 -88 -15 -88 21
0 98 53 140 96 96 98 162 274 119 317 -22 22 -43 21 -82 -3z"/>
</g>
</svg>
